{
  "asset": {
    "version": "2.0",
    "generator": "Sketchup glTF Exporter v1.2.6 by Centaur"
  },
  "scene": 0,
  "scenes": [
    {
      "nodes": [
        0
      ]
    }
  ],
  "samplers": [
    {
    }
  ],
  "nodes": [
    {
      "name": "root",
      "children": [
        1,
        2,
        3
      ]
    },
    {
      "name": "couvertine à coller",
      "mesh": 0
    },
    {
      "name": "faitière"
    },
    {
      "name": "noue tuile"
    }
  ],
  "materials": [
    {
      "pbrMetallicRoughness": {
        "baseColorTexture": {
          "index": 0
        },
        "metallicFactor": 0.1,
        "roughnessFactor": 0.9
      },
      "name": "f2edea"
    },
    {
      "pbrMetallicRoughness": {
        "baseColorFactor": [
          0.0017,
          0.0017,
          0.0023,
          1.0
        ],
        "metallicFactor": 0.1,
        "roughnessFactor": 0.9
      },
      "name": "0e0e10"
    },
    {
      "pbrMetallicRoughness": {
        "baseColorFactor": [
          0.8434,
          0.7818,
          0.5732,
          1.0
        ],
        "metallicFactor": 0.1,
        "roughnessFactor": 0.9
      },
      "name": "Lily_Blonde"
    }
  ],
  "images": [
    {
      "bufferView": 0,
      "mimeType": "image/png"
    }
  ],
  "textures": [
    {
      "source": 0,
      "sampler": 0
    }
  ],
  "meshes": [
    {
      "primitives": [
        {
          "attributes": {
            "POSITION": 2,
            "NORMAL": 3,
            "TEXCOORD_0": 4
          },
          "indices": 5,
          "mode": 4,
          "material": 0
        },
        {
          "attributes": {
            "POSITION": 0,
            "NORMAL": 1
          },
          "indices": 6,
          "mode": 4,
          "material": 1
        },
        {
          "attributes": {
            "POSITION": 0,
            "NORMAL": 1
          },
          "indices": 7,
          "mode": 4,
          "material": 2
        }
      ]
    }
  ],
  "accessors": [
    {
      "bufferView": 1,
      "componentType": 5126,
      "count": 414,
      "type": "VEC3",
      "min": [
        -0.09305086865048601,
        0.019343738264203977,
        -0.5251685254144218
      ],
      "max": [
        0.27814951103172114,
        0.05868538200733938,
        0.43642103991161324
      ]
    },
    {
      "bufferView": 2,
      "componentType": 5126,
      "count": 414,
      "type": "VEC3",
      "min": [
        -0.9826127965434219,
        -0.9999370567546609,
        -0.18566661538660964
      ],
      "max": [
        0.9826127965434202,
        1.0,
        0.18566661538659981
      ]
    },
    {
      "bufferView": 3,
      "componentType": 5126,
      "count": 626,
      "type": "VEC3",
      "min": [
        -0.09305086865048601,
        0.019343738264203977,
        -0.5251685254144218
      ],
      "max": [
        0.27814951103172114,
        0.05868538200733938,
        0.43642103991161324
      ]
    },
    {
      "bufferView": 4,
      "componentType": 5126,
      "count": 626,
      "type": "VEC3",
      "min": [
        -0.9826127965434202,
        -1.0,
        -0.9826127965434215
      ],
      "max": [
        0.982612796543422,
        1.0,
        0.9826127965434218
      ]
    },
    {
      "bufferView": 5,
      "componentType": 5126,
      "count": 626,
      "type": "VEC2",
      "min": [
        -0.3895920509697902,
        -1.4378491519260375
      ],
      "max": [
        0.4072340871420253,
        3.31203404784911
      ]
    },
    {
      "bufferView": 7,
      "componentType": 5123,
      "count": 1470,
      "type": "SCALAR"
    },
    {
      "bufferView": 6,
      "componentType": 5123,
      "count": 546,
      "type": "SCALAR"
    },
    {
      "bufferView": 6,
      "componentType": 5123,
      "count": 144,
      "type": "SCALAR",
      "byteOffset": 1092
    }
  ],
  "bufferViews": [
    {
      "buffer": 0,
      "byteLength": 593
    },
    {
      "buffer": 0,
      "byteOffset": 600,
      "byteLength": 4968,
      "target": 34962,
      "byteStride": 12
    },
    {
      "buffer": 0,
      "byteOffset": 5568,
      "byteLength": 4968,
      "target": 34962,
      "byteStride": 12
    },
    {
      "buffer": 0,
      "byteOffset": 10536,
      "byteLength": 7512,
      "target": 34962,
      "byteStride": 12
    },
    {
      "buffer": 0,
      "byteOffset": 18048,
      "byteLength": 7512,
      "target": 34962,
      "byteStride": 12
    },
    {
      "buffer": 0,
      "byteOffset": 25560,
      "byteLength": 5008,
      "target": 34962,
      "byteStride": 8
    },
    {
      "buffer": 0,
      "byteOffset": 30568,
      "byteLength": 1380,
      "target": 34963
    },
    {
      "buffer": 0,
      "byteOffset": 31948,
      "byteLength": 2940,
      "target": 34963
    }
  ],
  "buffers": [
    {
      "uri": "data:application/octet-stream;base64,",
      "byteLength": 34888
    }
  ]
}