{
  "asset": {
    "version": "2.0",
    "generator": "Sketchup glTF Exporter v1.2.6 by Centaur"
  },
  "scene": 0,
  "scenes": [
    {
      "nodes": [
        0
      ]
    }
  ],
  "samplers": [
    {
    }
  ],
  "nodes": [
    {
      "name": "root",
      "children": [
        1,
        2,
        3
      ]
    },
    {
      "name": "couvertine à coller",
      "mesh": 0
    },
    {
      "name": "faitière"
    },
    {
      "name": "noue tuile"
    }
  ],
  "materials": [
    {
      "pbrMetallicRoughness": {
        "baseColorFactor": [
          0.8434,
          0.7818,
          0.5732,
          1.0
        ],
        "metallicFactor": 0.1,
        "roughnessFactor": 0.9
      },
      "name": "Lily_Blonde"
    },
    {
      "pbrMetallicRoughness": {
        "baseColorFactor": [
          0.0329,
          0.0342,
          0.0399,
          1.0
        ],
        "metallicFactor": 0.1,
        "roughnessFactor": 0.9
      },
      "name": "Heather_Soles"
    }
  ],
  "meshes": [
    {
      "primitives": [
        {
          "attributes": {
            "POSITION": 0,
            "NORMAL": 1
          },
          "indices": 2,
          "mode": 4,
          "material": 0
        },
        {
          "attributes": {
            "POSITION": 0,
            "NORMAL": 1
          },
          "indices": 3,
          "mode": 4,
          "material": 1
        }
      ]
    }
  ],
  "accessors": [
    {
      "bufferView": 0,
      "componentType": 5126,
      "count": 764,
      "type": "VEC3",
      "min": [
        -0.17616174200869295,
        0.019343738264203998,
        -0.48062664458307514
      ],
      "max": [
        0.19503863767351423,
        0.05868538200733939,
        0.4809629207429597
      ]
    },
    {
      "bufferView": 1,
      "componentType": 5126,
      "count": 764,
      "type": "VEC3",
      "min": [
        -0.9826127965434219,
        -1.0,
        -0.9826127965434215
      ],
      "max": [
        0.9826127965434222,
        1.0,
        0.982612796543422
      ]
    },
    {
      "bufferView": 2,
      "componentType": 5123,
      "count": 1614,
      "type": "SCALAR"
    },
    {
      "bufferView": 2,
      "componentType": 5123,
      "count": 546,
      "type": "SCALAR",
      "byteOffset": 3228
    }
  ],
  "bufferViews": [
    {
      "buffer": 0,
      "byteLength": 9168,
      "target": 34962,
      "byteStride": 12
    },
    {
      "buffer": 0,
      "byteOffset": 9168,
      "byteLength": 9168,
      "target": 34962,
      "byteStride": 12
    },
    {
      "buffer": 0,
      "byteOffset": 18336,
      "byteLength": 4320,
      "target": 34963
    }
  ],
  "buffers": [
    {
      "uri": "data:application/octet-stream;base64,",
      "byteLength": 22656
    }
  ]
}