{
  "asset": {
    "version": "2.0",
    "generator": "Sketchup glTF Exporter v1.2.6 by Centaur"
  },
  "scene": 0,
  "scenes": [
    {
      "nodes": [
        0
      ]
    }
  ],
  "samplers": [
    {
    }
  ],
  "nodes": [
    {
      "name": "root",
      "children": [
        1
      ]
    },
    {
      "name": "bande de rive à ourlet",
      "mesh": 0
    }
  ],
  "materials": [
    {
      "pbrMetallicRoughness": {
        "baseColorFactor": [
          0.0017,
          0.0017,
          0.0023,
          1.0
        ],
        "metallicFactor": 0.1,
        "roughnessFactor": 0.9
      },
      "name": "0e0e10"
    },
    {
      "pbrMetallicRoughness": {
        "baseColorTexture": {
          "index": 0
        },
        "roughnessFactor": 0.4
      },
      "name": "Aluminium"
    }
  ],
  "images": [
    {
      "bufferView": 0,
      "mimeType": "image/jpeg"
    }
  ],
  "textures": [
    {
      "source": 0,
      "sampler": 0
    }
  ],
  "meshes": [
    {
      "primitives": [
        {
          "attributes": {
            "POSITION": 0,
            "NORMAL": 1
          },
          "indices": 5,
          "mode": 4,
          "material": 0
        },
        {
          "attributes": {
            "POSITION": 2,
            "NORMAL": 3,
            "TEXCOORD_0": 4
          },
          "indices": 6,
          "mode": 4,
          "material": 1
        }
      ]
    }
  ],
  "accessors": [
    {
      "bufferView": 1,
      "componentType": 5126,
      "count": 445,
      "type": "VEC3",
      "min": [
        0.0838191680898156,
        -1.542382295835821e-16,
        -2.5189014447425784
      ],
      "max": [
        0.09981580594521999,
        1.9999999999999998,
        -2.418902720113708
      ]
    },
    {
      "bufferView": 2,
      "componentType": 5126,
      "count": 445,
      "type": "VEC3",
      "min": [
        -0.999579731925505,
        -1.0,
        -1.0
      ],
      "max": [
        1.0,
        6.122257821254356e-17,
        0.9998405786087726
      ]
    },
    {
      "bufferView": 3,
      "componentType": 5126,
      "count": 647,
      "type": "VEC3",
      "min": [
        0.0838191680898156,
        -1.542382295835821e-16,
        -2.5189014447425784
      ],
      "max": [
        0.09981580594521999,
        1.9999999999999998,
        -2.418902720113708
      ]
    },
    {
      "bufferView": 4,
      "componentType": 5126,
      "count": 647,
      "type": "VEC3",
      "min": [
        -1.0,
        -6.123174170929415e-17,
        -0.9999902298675188
      ],
      "max": [
        0.9999609196609868,
        1.0,
        0.9999120699531323
      ]
    },
    {
      "bufferView": 5,
      "componentType": 5126,
      "count": 647,
      "type": "VEC2",
      "min": [
        -1.2306204754951144,
        -0.3123359580052496
      ],
      "max": [
        2.1716877926290676,
        1.0
      ]
    },
    {
      "bufferView": 6,
      "componentType": 5123,
      "count": 1299,
      "type": "SCALAR"
    },
    {
      "bufferView": 7,
      "componentType": 5123,
      "count": 1293,
      "type": "SCALAR"
    }
  ],
  "bufferViews": [
    {
      "buffer": 0,
      "byteLength": 12471
    },
    {
      "buffer": 0,
      "byteOffset": 12480,
      "byteLength": 5340,
      "target": 34962,
      "byteStride": 12
    },
    {
      "buffer": 0,
      "byteOffset": 17820,
      "byteLength": 5340,
      "target": 34962,
      "byteStride": 12
    },
    {
      "buffer": 0,
      "byteOffset": 23160,
      "byteLength": 7764,
      "target": 34962,
      "byteStride": 12
    },
    {
      "buffer": 0,
      "byteOffset": 30924,
      "byteLength": 7764,
      "target": 34962,
      "byteStride": 12
    },
    {
      "buffer": 0,
      "byteOffset": 38688,
      "byteLength": 5176,
      "target": 34962,
      "byteStride": 8
    },
    {
      "buffer": 0,
      "byteOffset": 43864,
      "byteLength": 2598,
      "target": 34963
    },
    {
      "buffer": 0,
      "byteOffset": 46462,
      "byteLength": 2586,
      "target": 34963
    }
  ],
  "buffers": [
    {
      "uri": "data:application/octet-stream;base64,",
      "byteLength": 49048
    }
  ]
}