{
  "asset": {
    "version": "2.0",
    "generator": "Sketchup glTF Exporter v1.2.6 by Centaur"
  },
  "scene": 0,
  "scenes": [
    {
      "nodes": [
        0
      ]
    }
  ],
  "samplers": [
    {
    }
  ],
  "nodes": [
    {
      "name": "root",
      "children": [
        1
      ]
    },
    {
      "name": "bande de rive standard",
      "mesh": 0
    }
  ],
  "materials": [
    {
      "pbrMetallicRoughness": {
        "baseColorFactor": [
          0.0697,
          0.0658,
          0.0546,
          1.0
        ],
        "metallicFactor": 0.1,
        "roughnessFactor": 0.9
      },
      "name": "4c4a44"
    },
    {
      "pbrMetallicRoughness": {
        "baseColorTexture": {
          "index": 0
        },
        "roughnessFactor": 0.4
      },
      "name": "Aluminium"
    }
  ],
  "images": [
    {
      "bufferView": 0,
      "mimeType": "image/jpeg"
    }
  ],
  "textures": [
    {
      "source": 0,
      "sampler": 0
    }
  ],
  "meshes": [
    {
      "primitives": [
        {
          "attributes": {
            "POSITION": 0,
            "NORMAL": 1
          },
          "indices": 5,
          "mode": 4,
          "material": 0
        },
        {
          "attributes": {
            "POSITION": 2,
            "NORMAL": 3,
            "TEXCOORD_0": 4
          },
          "indices": 6,
          "mode": 4,
          "material": 1
        }
      ]
    }
  ],
  "accessors": [
    {
      "bufferView": 1,
      "componentType": 5126,
      "count": 64,
      "type": "VEC3",
      "min": [
        0.5828517876051341,
        -4.2343849762583313e-16,
        -1.0204213639917272
      ],
      "max": [
        0.6828517876051331,
        2.9999999999999996,
        -0.9194260374795901
      ]
    },
    {
      "bufferView": 2,
      "componentType": 5126,
      "count": 64,
      "type": "VEC3",
      "min": [
        -0.7071067811865016,
        -6.123233995736766e-17,
        -1.0
      ],
      "max": [
        1.0,
        4.329780281177749e-17,
        0.7071067811865934
      ]
    },
    {
      "bufferView": 3,
      "componentType": 5126,
      "count": 236,
      "type": "VEC3",
      "min": [
        0.5828517876051341,
        -4.2343849762583313e-16,
        -1.0204213639917272
      ],
      "max": [
        0.6828517876051331,
        2.9999999999999996,
        -0.9194260374795901
      ]
    },
    {
      "bufferView": 4,
      "componentType": 5126,
      "count": 236,
      "type": "VEC3",
      "min": [
        -1.0,
        -1.0,
        -0.7071067811866496
      ],
      "max": [
        0.7071067811864452,
        1.0,
        1.0
      ]
    },
    {
      "bufferView": 5,
      "componentType": 5126,
      "count": 236,
      "type": "VEC2",
      "min": [
        -0.39176567717370764,
        -0.9685039370078745
      ],
      "max": [
        0.39176567717370764,
        1.0
      ]
    },
    {
      "bufferView": 6,
      "componentType": 5121,
      "count": 168,
      "type": "SCALAR"
    },
    {
      "bufferView": 7,
      "componentType": 5121,
      "count": 516,
      "type": "SCALAR"
    }
  ],
  "bufferViews": [
    {
      "buffer": 0,
      "byteLength": 12471
    },
    {
      "buffer": 0,
      "byteOffset": 12480,
      "byteLength": 768,
      "target": 34962,
      "byteStride": 12
    },
    {
      "buffer": 0,
      "byteOffset": 13248,
      "byteLength": 768,
      "target": 34962,
      "byteStride": 12
    },
    {
      "buffer": 0,
      "byteOffset": 14016,
      "byteLength": 2832,
      "target": 34962,
      "byteStride": 12
    },
    {
      "buffer": 0,
      "byteOffset": 16848,
      "byteLength": 2832,
      "target": 34962,
      "byteStride": 12
    },
    {
      "buffer": 0,
      "byteOffset": 19680,
      "byteLength": 1888,
      "target": 34962,
      "byteStride": 8
    },
    {
      "buffer": 0,
      "byteOffset": 21568,
      "byteLength": 168,
      "target": 34963
    },
    {
      "buffer": 0,
      "byteOffset": 21736,
      "byteLength": 516,
      "target": 34963
    }
  ],
  "buffers": [
    {
      "uri": "data:application/octet-stream;base64,",
      "byteLength": 22252
    }
  ]
}