{
  "asset": {
    "version": "2.0",
    "generator": "Sketchup glTF Exporter v1.2.6 by Centaur"
  },
  "scene": 0,
  "scenes": [
    {
      "nodes": [
        0
      ]
    }
  ],
  "samplers": [
    {
    }
  ],
  "nodes": [
    {
      "name": "root",
      "children": [
        1
      ]
    },
    {
      "name": "bande solin pour bac",
      "mesh": 0
    }
  ],
  "materials": [
    {
      "pbrMetallicRoughness": {
        "baseColorFactor": [
          0.0017,
          0.0017,
          0.0023,
          1.0
        ],
        "metallicFactor": 0.1,
        "roughnessFactor": 0.9
      },
      "name": "0e0e10"
    },
    {
      "pbrMetallicRoughness": {
        "baseColorTexture": {
          "index": 0
        },
        "roughnessFactor": 0.4
      },
      "name": "Aluminium"
    }
  ],
  "images": [
    {
      "bufferView": 0,
      "mimeType": "image/jpeg"
    }
  ],
  "textures": [
    {
      "source": 0,
      "sampler": 0
    }
  ],
  "meshes": [
    {
      "primitives": [
        {
          "attributes": {
            "POSITION": 0,
            "NORMAL": 1
          },
          "indices": 5,
          "mode": 4,
          "material": 0
        },
        {
          "attributes": {
            "POSITION": 2,
            "NORMAL": 3,
            "TEXCOORD_0": 4
          },
          "indices": 6,
          "mode": 4,
          "material": 1
        }
      ]
    }
  ],
  "accessors": [
    {
      "bufferView": 1,
      "componentType": 5126,
      "count": 166,
      "type": "VEC3",
      "min": [
        0.16789088750024658,
        -1.342675305690313e-16,
        -2.192755179085326
      ],
      "max": [
        0.20608327565566445,
        0.9999999999999999,
        -2.0961693926476994
      ]
    },
    {
      "bufferView": 2,
      "componentType": 5126,
      "count": 166,
      "type": "VEC3",
      "min": [
        2.4492935982947064e-16,
        -6.123233995736766e-17,
        -1.0
      ],
      "max": [
        1.0,
        4.3297802811774794e-17,
        0.7071067811865497
      ]
    },
    {
      "bufferView": 3,
      "componentType": 5126,
      "count": 616,
      "type": "VEC3",
      "min": [
        0.16689088750024395,
        -1.3431082837184306e-16,
        -2.1934622858665125
      ],
      "max": [
        0.20608327565566445,
        0.9999999999999999,
        -2.095462285866513
      ]
    },
    {
      "bufferView": 4,
      "componentType": 5126,
      "count": 616,
      "type": "VEC3",
      "min": [
        -1.0,
        -1.0,
        -0.7071067811865573
      ],
      "max": [
        0.7071067811867898,
        1.0,
        1.0
      ]
    },
    {
      "bufferView": 5,
      "componentType": 5126,
      "count": 616,
      "type": "VEC2",
      "min": [
        -0.6641101525250744,
        0.3438320209973753
      ],
      "max": [
        0.6641101525250744,
        1.0
      ]
    },
    {
      "bufferView": 6,
      "componentType": 5121,
      "count": 444,
      "type": "SCALAR"
    },
    {
      "bufferView": 7,
      "componentType": 5123,
      "count": 1368,
      "type": "SCALAR"
    }
  ],
  "bufferViews": [
    {
      "buffer": 0,
      "byteLength": 12471
    },
    {
      "buffer": 0,
      "byteOffset": 12480,
      "byteLength": 1992,
      "target": 34962,
      "byteStride": 12
    },
    {
      "buffer": 0,
      "byteOffset": 14472,
      "byteLength": 1992,
      "target": 34962,
      "byteStride": 12
    },
    {
      "buffer": 0,
      "byteOffset": 16464,
      "byteLength": 7392,
      "target": 34962,
      "byteStride": 12
    },
    {
      "buffer": 0,
      "byteOffset": 23856,
      "byteLength": 7392,
      "target": 34962,
      "byteStride": 12
    },
    {
      "buffer": 0,
      "byteOffset": 31248,
      "byteLength": 4928,
      "target": 34962,
      "byteStride": 8
    },
    {
      "buffer": 0,
      "byteOffset": 36176,
      "byteLength": 444,
      "target": 34963
    },
    {
      "buffer": 0,
      "byteOffset": 36620,
      "byteLength": 2736,
      "target": 34963
    }
  ],
  "buffers": [
    {
      "uri": "data:application/octet-stream;base64,",
      "byteLength": 39356
    }
  ]
}