{
  "asset": {
    "version": "2.0",
    "generator": "Sketchup glTF Exporter v1.2.6 by Centaur"
  },
  "scene": 0,
  "scenes": [
    {
      "nodes": [
        0
      ]
    }
  ],
  "samplers": [
    {
    }
  ],
  "nodes": [
    {
      "name": "root",
      "children": [
        1
      ]
    },
    {
      "name": "bande de rive mouluré",
      "mesh": 0
    }
  ],
  "materials": [
    {
      "pbrMetallicRoughness": {
        "baseColorFactor": [
          0.9075,
          0.9075,
          0.8513,
          1.0
        ],
        "metallicFactor": 0.1,
        "roughnessFactor": 0.9
      },
      "name": "f4f4ed"
    },
    {
      "pbrMetallicRoughness": {
        "baseColorTexture": {
          "index": 0
        },
        "roughnessFactor": 0.4
      },
      "name": "Aluminium"
    }
  ],
  "images": [
    {
      "bufferView": 0,
      "mimeType": "image/jpeg"
    }
  ],
  "textures": [
    {
      "source": 0,
      "sampler": 0
    }
  ],
  "meshes": [
    {
      "primitives": [
        {
          "attributes": {
            "POSITION": 0,
            "NORMAL": 1
          },
          "indices": 5,
          "mode": 4,
          "material": 0
        },
        {
          "attributes": {
            "POSITION": 2,
            "NORMAL": 3,
            "TEXCOORD_0": 4
          },
          "indices": 6,
          "mode": 4,
          "material": 1
        }
      ]
    }
  ],
  "accessors": [
    {
      "bufferView": 1,
      "componentType": 5126,
      "count": 322,
      "type": "VEC3",
      "min": [
        0.46694636003891266,
        3.1998724829416383e-16,
        -0.6690657502308561
      ],
      "max": [
        0.5405507429033681,
        3.0000000000000004,
        -0.5135275813561595
      ]
    },
    {
      "bufferView": 2,
      "componentType": 5126,
      "count": 322,
      "type": "VEC3",
      "min": [
        -0.9659258262890043,
        -6.123233995736766e-17,
        -1.0
      ],
      "max": [
        1.0,
        6.120643562098344e-17,
        0.9995769500822236
      ]
    },
    {
      "bufferView": 3,
      "componentType": 5126,
      "count": 1192,
      "type": "VEC3",
      "min": [
        0.46694636003891266,
        3.1998724829416383e-16,
        -0.6690657502308561
      ],
      "max": [
        0.5405507429033681,
        3.0000000000000004,
        -0.5135275813561595
      ]
    },
    {
      "bufferView": 4,
      "componentType": 5126,
      "count": 1192,
      "type": "VEC3",
      "min": [
        -1.0,
        -1.0,
        -0.9995769500822312
      ],
      "max": [
        0.9659258262890081,
        1.0,
        1.0
      ]
    },
    {
      "bufferView": 5,
      "componentType": 5126,
      "count": 1192,
      "type": "VEC2",
      "min": [
        -5.269306175360176,
        -0.9685039370078741
      ],
      "max": [
        5.268819906065966,
        1.0
      ]
    },
    {
      "bufferView": 6,
      "componentType": 5123,
      "count": 858,
      "type": "SCALAR"
    },
    {
      "bufferView": 7,
      "componentType": 5123,
      "count": 2658,
      "type": "SCALAR"
    }
  ],
  "bufferViews": [
    {
      "buffer": 0,
      "byteLength": 12471
    },
    {
      "buffer": 0,
      "byteOffset": 12480,
      "byteLength": 3864,
      "target": 34962,
      "byteStride": 12
    },
    {
      "buffer": 0,
      "byteOffset": 16344,
      "byteLength": 3864,
      "target": 34962,
      "byteStride": 12
    },
    {
      "buffer": 0,
      "byteOffset": 20208,
      "byteLength": 14304,
      "target": 34962,
      "byteStride": 12
    },
    {
      "buffer": 0,
      "byteOffset": 34512,
      "byteLength": 14304,
      "target": 34962,
      "byteStride": 12
    },
    {
      "buffer": 0,
      "byteOffset": 48816,
      "byteLength": 9536,
      "target": 34962,
      "byteStride": 8
    },
    {
      "buffer": 0,
      "byteOffset": 58352,
      "byteLength": 1716,
      "target": 34963
    },
    {
      "buffer": 0,
      "byteOffset": 60068,
      "byteLength": 5316,
      "target": 34963
    }
  ],
  "buffers": [
    {
      "uri": "data:application/octet-stream;base64,",
      "byteLength": 65384
    }
  ]
}