{
  "asset": {
    "version": "2.0",
    "generator": "Sketchup glTF Exporter v1.2.6 by Centaur"
  },
  "scene": 0,
  "scenes": [
    {
      "nodes": [
        0
      ]
    }
  ],
  "samplers": [
    {
    }
  ],
  "nodes": [
    {
      "name": "root",
      "children": [
        1
      ]
    },
    {
      "name": "bande de doublis à pince",
      "mesh": 0
    }
  ],
  "materials": [
    {
      "pbrMetallicRoughness": {
        "baseColorTexture": {
          "index": 0
        },
        "roughnessFactor": 0.4
      },
      "name": "Aluminium"
    },
    {
      "pbrMetallicRoughness": {
        "baseColorFactor": [
          0.0017,
          0.0017,
          0.0023,
          1.0
        ],
        "metallicFactor": 0.1,
        "roughnessFactor": 0.9
      },
      "name": "0e0e10"
    }
  ],
  "images": [
    {
      "bufferView": 0,
      "mimeType": "image/jpeg"
    }
  ],
  "textures": [
    {
      "source": 0,
      "sampler": 0
    }
  ],
  "meshes": [
    {
      "primitives": [
        {
          "attributes": {
            "POSITION": 2,
            "NORMAL": 3,
            "TEXCOORD_0": 4
          },
          "indices": 5,
          "mode": 4,
          "material": 0
        },
        {
          "attributes": {
            "POSITION": 0,
            "NORMAL": 1
          },
          "indices": 6,
          "mode": 4,
          "material": 1
        }
      ]
    }
  ],
  "accessors": [
    {
      "bufferView": 1,
      "componentType": 5126,
      "count": 608,
      "type": "VEC3",
      "min": [
        0.32887744415508613,
        -3.467815454855585e-17,
        -0.5663372422595662
      ],
      "max": [
        0.34787397997742986,
        2.0,
        -0.4662797335549706
      ]
    },
    {
      "bufferView": 2,
      "componentType": 5126,
      "count": 608,
      "type": "VEC3",
      "min": [
        -1.0,
        -1.0,
        -0.9999390992763231
      ],
      "max": [
        1.0,
        6.123233995736766e-17,
        1.0
      ]
    },
    {
      "bufferView": 3,
      "componentType": 5126,
      "count": 898,
      "type": "VEC3",
      "min": [
        0.32887744415508613,
        -3.467815454855585e-17,
        -0.5663372422595663
      ],
      "max": [
        0.34787397997742986,
        2.0,
        -0.4662797335549707
      ]
    },
    {
      "bufferView": 4,
      "componentType": 5126,
      "count": 898,
      "type": "VEC3",
      "min": [
        -1.0,
        -6.122345378923063e-17,
        -0.9998548778612213
      ],
      "max": [
        1.0,
        1.0,
        0.9998867595756709
      ]
    },
    {
      "bufferView": 5,
      "componentType": 5126,
      "count": 898,
      "type": "VEC2",
      "min": [
        -1.8004005441510698,
        -0.3123359580052494
      ],
      "max": [
        1.7869902420150223,
        1.0
      ]
    },
    {
      "bufferView": 7,
      "componentType": 5123,
      "count": 1788,
      "type": "SCALAR"
    },
    {
      "bufferView": 6,
      "componentType": 5123,
      "count": 1776,
      "type": "SCALAR"
    }
  ],
  "bufferViews": [
    {
      "buffer": 0,
      "byteLength": 12471
    },
    {
      "buffer": 0,
      "byteOffset": 12480,
      "byteLength": 7296,
      "target": 34962,
      "byteStride": 12
    },
    {
      "buffer": 0,
      "byteOffset": 19776,
      "byteLength": 7296,
      "target": 34962,
      "byteStride": 12
    },
    {
      "buffer": 0,
      "byteOffset": 27072,
      "byteLength": 10776,
      "target": 34962,
      "byteStride": 12
    },
    {
      "buffer": 0,
      "byteOffset": 37848,
      "byteLength": 10776,
      "target": 34962,
      "byteStride": 12
    },
    {
      "buffer": 0,
      "byteOffset": 48624,
      "byteLength": 7184,
      "target": 34962,
      "byteStride": 8
    },
    {
      "buffer": 0,
      "byteOffset": 55808,
      "byteLength": 3552,
      "target": 34963
    },
    {
      "buffer": 0,
      "byteOffset": 59360,
      "byteLength": 3576,
      "target": 34963
    }
  ],
  "buffers": [
    {
      "uri": "data:application/octet-stream;base64,",
      "byteLength": 62936
    }
  ]
}