{
  "asset": {
    "version": "2.0",
    "generator": "Sketchup glTF Exporter v1.2.6 by Centaur"
  },
  "scene": 0,
  "scenes": [
    {
      "nodes": [
        0
      ]
    }
  ],
  "samplers": [
    {
    }
  ],
  "nodes": [
    {
      "name": "root",
      "children": [
        1
      ]
    },
    {
      "name": "bnde de rive astragale",
      "mesh": 0
    }
  ],
  "materials": [
    {
      "pbrMetallicRoughness": {
        "baseColorTexture": {
          "index": 0
        },
        "roughnessFactor": 0.4
      },
      "name": "Aluminium"
    },
    {
      "pbrMetallicRoughness": {
        "baseColorFactor": [
          0.0017,
          0.0017,
          0.0023,
          1.0
        ],
        "metallicFactor": 0.1,
        "roughnessFactor": 0.9
      },
      "name": "0e0e10"
    }
  ],
  "images": [
    {
      "bufferView": 0,
      "mimeType": "image/jpeg"
    }
  ],
  "textures": [
    {
      "source": 0,
      "sampler": 0
    }
  ],
  "meshes": [
    {
      "primitives": [
        {
          "attributes": {
            "POSITION": 2,
            "NORMAL": 3,
            "TEXCOORD_0": 4
          },
          "indices": 5,
          "mode": 4,
          "material": 0
        },
        {
          "attributes": {
            "POSITION": 0,
            "NORMAL": 1
          },
          "indices": 6,
          "mode": 4,
          "material": 1
        }
      ]
    }
  ],
  "accessors": [
    {
      "bufferView": 1,
      "componentType": 5126,
      "count": 218,
      "type": "VEC3",
      "min": [
        0.39706102692751744,
        3.3401849106358e-16,
        -0.5104514100948203
      ],
      "max": [
        0.4142353646103791,
        2.0000000000000004,
        -0.41043306276961433
      ]
    },
    {
      "bufferView": 2,
      "componentType": 5126,
      "count": 218,
      "type": "VEC3",
      "min": [
        -0.9999832148211352,
        -6.120285878197747e-17,
        -0.9995185358682891
      ],
      "max": [
        1.0,
        6.123221821230874e-17,
        0.9999980117523027
      ]
    },
    {
      "bufferView": 3,
      "componentType": 5126,
      "count": 830,
      "type": "VEC3",
      "min": [
        0.39606102692751766,
        3.3401849106358e-16,
        -0.5104514100948203
      ],
      "max": [
        0.4142353646103791,
        2.0000000000000004,
        -0.41043306276961433
      ]
    },
    {
      "bufferView": 4,
      "componentType": 5126,
      "count": 830,
      "type": "VEC3",
      "min": [
        -1.0,
        -1.0,
        -1.0
      ],
      "max": [
        0.9998802732440708,
        1.0,
        0.999651161196298
      ]
    },
    {
      "bufferView": 5,
      "componentType": 5126,
      "count": 830,
      "type": "VEC2",
      "min": [
        -4.361701598013171,
        -0.31233595800525027
      ],
      "max": [
        4.358008467651958,
        0.999999999999999
      ]
    },
    {
      "bufferView": 7,
      "componentType": 5123,
      "count": 1854,
      "type": "SCALAR"
    },
    {
      "bufferView": 6,
      "componentType": 5121,
      "count": 618,
      "type": "SCALAR"
    }
  ],
  "bufferViews": [
    {
      "buffer": 0,
      "byteLength": 12471
    },
    {
      "buffer": 0,
      "byteOffset": 12480,
      "byteLength": 2616,
      "target": 34962,
      "byteStride": 12
    },
    {
      "buffer": 0,
      "byteOffset": 15096,
      "byteLength": 2616,
      "target": 34962,
      "byteStride": 12
    },
    {
      "buffer": 0,
      "byteOffset": 17712,
      "byteLength": 9960,
      "target": 34962,
      "byteStride": 12
    },
    {
      "buffer": 0,
      "byteOffset": 27672,
      "byteLength": 9960,
      "target": 34962,
      "byteStride": 12
    },
    {
      "buffer": 0,
      "byteOffset": 37632,
      "byteLength": 6640,
      "target": 34962,
      "byteStride": 8
    },
    {
      "buffer": 0,
      "byteOffset": 44272,
      "byteLength": 618,
      "target": 34963
    },
    {
      "buffer": 0,
      "byteOffset": 44890,
      "byteLength": 3708,
      "target": 34963
    }
  ],
  "buffers": [
    {
      "uri": "data:application/octet-stream;base64,",
      "byteLength": 48598
    }
  ]
}