{
  "asset": {
    "version": "2.0",
    "generator": "Sketchup glTF Exporter v1.2.6 by Centaur"
  },
  "scene": 0,
  "scenes": [
    {
      "nodes": [
        0
      ]
    }
  ],
  "samplers": [
    {
    }
  ],
  "nodes": [
    {
      "name": "root",
      "children": [
        1
      ]
    },
    {
      "name": "bande solin à mastiquer",
      "mesh": 0
    }
  ],
  "materials": [
    {
      "pbrMetallicRoughness": {
        "baseColorTexture": {
          "index": 0
        },
        "roughnessFactor": 0.4
      },
      "name": "Aluminium"
    },
    {
      "pbrMetallicRoughness": {
        "baseColorFactor": [
          0.0017,
          0.0017,
          0.0023,
          1.0
        ],
        "metallicFactor": 0.1,
        "roughnessFactor": 0.9
      },
      "name": "0e0e10"
    },
    {
      "pbrMetallicRoughness": {
        "baseColorFactor": [
          0.009,
          0.009,
          0.009,
          1.0
        ],
        "metallicFactor": 0.1,
        "roughnessFactor": 0.9
      },
      "name": "Couleur M08"
    }
  ],
  "images": [
    {
      "bufferView": 0,
      "mimeType": "image/jpeg"
    }
  ],
  "textures": [
    {
      "source": 0,
      "sampler": 0
    }
  ],
  "meshes": [
    {
      "primitives": [
        {
          "attributes": {
            "POSITION": 2,
            "NORMAL": 3,
            "TEXCOORD_0": 4
          },
          "indices": 5,
          "mode": 4,
          "material": 0
        },
        {
          "attributes": {
            "POSITION": 0,
            "NORMAL": 1
          },
          "indices": 6,
          "mode": 4,
          "material": 1
        },
        {
          "attributes": {
            "POSITION": 0,
            "NORMAL": 1
          },
          "indices": 7,
          "mode": 4,
          "material": 2
        }
      ]
    }
  ],
  "accessors": [
    {
      "bufferView": 1,
      "componentType": 5126,
      "count": 218,
      "type": "VEC3",
      "min": [
        0.16749582677658803,
        -1.7048092177100966e-16,
        -2.7841647385957344
      ],
      "max": [
        0.18381633485227747,
        3.0,
        -2.684814405092312
      ]
    },
    {
      "bufferView": 2,
      "componentType": 5126,
      "count": 218,
      "type": "VEC3",
      "min": [
        -0.9063077870367436,
        -5.30287619362442e-17,
        -0.8660254037844198
      ],
      "max": [
        1.0,
        6.122808223703334e-17,
        0.999930466150121
      ]
    },
    {
      "bufferView": 3,
      "componentType": 5126,
      "count": 720,
      "type": "VEC3",
      "min": [
        0.16649582677658828,
        -1.7048092177100966e-16,
        -2.7841647385957344
      ],
      "max": [
        0.18381633485227747,
        3.0,
        -2.684814405092312
      ]
    },
    {
      "bufferView": 4,
      "componentType": 5126,
      "count": 720,
      "type": "VEC3",
      "min": [
        -1.0,
        -1.0,
        -0.9997620270799068
      ],
      "max": [
        0.9063077870367243,
        1.0,
        0.8660254037844008
      ]
    },
    {
      "bufferView": 5,
      "componentType": 5126,
      "count": 720,
      "type": "VEC2",
      "min": [
        -1.9063812575631267,
        -0.9685039370078745
      ],
      "max": [
        1.9063812575631267,
        1.0
      ]
    },
    {
      "bufferView": 7,
      "componentType": 5123,
      "count": 1620,
      "type": "SCALAR"
    },
    {
      "bufferView": 6,
      "componentType": 5121,
      "count": 540,
      "type": "SCALAR"
    },
    {
      "bufferView": 6,
      "componentType": 5121,
      "count": 36,
      "type": "SCALAR",
      "byteOffset": 540
    }
  ],
  "bufferViews": [
    {
      "buffer": 0,
      "byteLength": 12471
    },
    {
      "buffer": 0,
      "byteOffset": 12480,
      "byteLength": 2616,
      "target": 34962,
      "byteStride": 12
    },
    {
      "buffer": 0,
      "byteOffset": 15096,
      "byteLength": 2616,
      "target": 34962,
      "byteStride": 12
    },
    {
      "buffer": 0,
      "byteOffset": 17712,
      "byteLength": 8640,
      "target": 34962,
      "byteStride": 12
    },
    {
      "buffer": 0,
      "byteOffset": 26352,
      "byteLength": 8640,
      "target": 34962,
      "byteStride": 12
    },
    {
      "buffer": 0,
      "byteOffset": 34992,
      "byteLength": 5760,
      "target": 34962,
      "byteStride": 8
    },
    {
      "buffer": 0,
      "byteOffset": 40752,
      "byteLength": 576,
      "target": 34963
    },
    {
      "buffer": 0,
      "byteOffset": 41328,
      "byteLength": 3240,
      "target": 34963
    }
  ],
  "buffers": [
    {
      "uri": "data:application/octet-stream;base64,",
      "byteLength": 44568
    }
  ]
}