{
  "asset": {
    "version": "2.0",
    "generator": "Sketchup glTF Exporter v1.2.6 by Centaur"
  },
  "scene": 0,
  "scenes": [
    {
      "nodes": [
        0
      ]
    }
  ],
  "samplers": [
    {
    }
  ],
  "nodes": [
    {
      "name": "root",
      "children": [
        1,
        2,
        3
      ]
    },
    {
      "name": "couvertine à coller",
      "mesh": 0
    },
    {
      "name": "faitière"
    },
    {
      "name": "noue tuile"
    }
  ],
  "materials": [
    {
      "pbrMetallicRoughness": {
        "baseColorFactor": [
          0.0017,
          0.0017,
          0.0023,
          1.0
        ],
        "metallicFactor": 0.1,
        "roughnessFactor": 0.9
      },
      "name": "0e0e10"
    },
    {
      "pbrMetallicRoughness": {
        "baseColorTexture": {
          "index": 0
        },
        "roughnessFactor": 0.4
      },
      "name": "Aluminium"
    }
  ],
  "images": [
    {
      "bufferView": 0,
      "mimeType": "image/jpeg"
    }
  ],
  "textures": [
    {
      "source": 0,
      "sampler": 0
    }
  ],
  "meshes": [
    {
      "primitives": [
        {
          "attributes": {
            "POSITION": 0,
            "NORMAL": 1
          },
          "indices": 5,
          "mode": 4,
          "material": 0
        },
        {
          "attributes": {
            "POSITION": 2,
            "NORMAL": 3,
            "TEXCOORD_0": 4
          },
          "indices": 6,
          "mode": 4,
          "material": 1
        }
      ]
    }
  ],
  "accessors": [
    {
      "bufferView": 1,
      "componentType": 5126,
      "count": 545,
      "type": "VEC3",
      "min": [
        -0.49576762450409145,
        7.603498843293269e-16,
        -0.1042739465623994
      ],
      "max": [
        0.4450467486658427,
        0.039341643742689364,
        0.0957260534378942
      ]
    },
    {
      "bufferView": 2,
      "componentType": 5126,
      "count": 545,
      "type": "VEC3",
      "min": [
        -1.0,
        -0.9999370567547147,
        -1.0
      ],
      "max": [
        2.9777008749723775e-13,
        1.0,
        1.0
      ]
    },
    {
      "bufferView": 3,
      "componentType": 5126,
      "count": 541,
      "type": "VEC3",
      "min": [
        -0.4957676245040911,
        7.603498845006801e-16,
        -0.1042739465621167
      ],
      "max": [
        0.4450467486658427,
        0.039341643742689364,
        0.0957260534378942
      ]
    },
    {
      "bufferView": 4,
      "componentType": 5126,
      "count": 541,
      "type": "VEC3",
      "min": [
        -2.9777008749723775e-13,
        -1.0,
        -1.0
      ],
      "max": [
        1.0,
        0.9999999999999999,
        1.0
      ]
    },
    {
      "bufferView": 5,
      "componentType": 5126,
      "count": 541,
      "type": "VEC2",
      "min": [
        -0.13025395382073976,
        0.3721690464764429
      ],
      "max": [
        0.13123359580052424,
        1.0
      ]
    },
    {
      "bufferView": 6,
      "componentType": 5123,
      "count": 1083,
      "type": "SCALAR"
    },
    {
      "bufferView": 7,
      "componentType": 5123,
      "count": 1077,
      "type": "SCALAR"
    }
  ],
  "bufferViews": [
    {
      "buffer": 0,
      "byteLength": 12471
    },
    {
      "buffer": 0,
      "byteOffset": 12480,
      "byteLength": 6540,
      "target": 34962,
      "byteStride": 12
    },
    {
      "buffer": 0,
      "byteOffset": 19020,
      "byteLength": 6540,
      "target": 34962,
      "byteStride": 12
    },
    {
      "buffer": 0,
      "byteOffset": 25560,
      "byteLength": 6492,
      "target": 34962,
      "byteStride": 12
    },
    {
      "buffer": 0,
      "byteOffset": 32052,
      "byteLength": 6492,
      "target": 34962,
      "byteStride": 12
    },
    {
      "buffer": 0,
      "byteOffset": 38544,
      "byteLength": 4328,
      "target": 34962,
      "byteStride": 8
    },
    {
      "buffer": 0,
      "byteOffset": 42872,
      "byteLength": 2166,
      "target": 34963
    },
    {
      "buffer": 0,
      "byteOffset": 45038,
      "byteLength": 2154,
      "target": 34963
    }
  ],
  "buffers": [
    {
      "uri": "data:application/octet-stream;base64,",
      "byteLength": 47192
    }
  ]
}