{
  "asset": {
    "version": "2.0",
    "generator": "Sketchup glTF Exporter v1.2.6 by Centaur"
  },
  "scene": 0,
  "scenes": [
    {
      "nodes": [
        0
      ]
    }
  ],
  "samplers": [
    {
    }
  ],
  "nodes": [
    {
      "name": "root",
      "children": [
        1,
        2,
        3
      ]
    },
    {
      "name": "couvertine à coller",
      "mesh": 0
    },
    {
      "name": "faitière"
    },
    {
      "name": "noue tuile"
    }
  ],
  "materials": [
    {
      "pbrMetallicRoughness": {
        "baseColorFactor": [
          0.8913,
          0.8513,
          0.8277,
          1.0
        ],
        "metallicFactor": 0.1,
        "roughnessFactor": 0.9
      },
      "name": "Lily_Blonde"
    },
    {
      "pbrMetallicRoughness": {
        "baseColorFactor": [
          0.0017,
          0.0017,
          0.0023,
          1.0
        ],
        "metallicFactor": 0.1,
        "roughnessFactor": 0.9
      },
      "name": "0e0e10"
    }
  ],
  "meshes": [
    {
      "primitives": [
        {
          "attributes": {
            "POSITION": 0,
            "NORMAL": 1
          },
          "indices": 2,
          "mode": 4,
          "material": 0
        },
        {
          "attributes": {
            "POSITION": 0,
            "NORMAL": 1
          },
          "indices": 3,
          "mode": 4,
          "material": 1
        }
      ]
    }
  ],
  "accessors": [
    {
      "bufferView": 0,
      "componentType": 5126,
      "count": 924,
      "type": "VEC3",
      "min": [
        -0.09305086865048601,
        0.019343738264203977,
        -0.5251685254144218
      ],
      "max": [
        0.27814951103172103,
        0.05868538200733938,
        0.43642103991161324
      ]
    },
    {
      "bufferView": 1,
      "componentType": 5126,
      "count": 924,
      "type": "VEC3",
      "min": [
        -0.9826127965434219,
        -1.0,
        -0.9826127965434215
      ],
      "max": [
        0.982612796543422,
        1.0,
        0.9826127965434218
      ]
    },
    {
      "bufferView": 2,
      "componentType": 5123,
      "count": 1614,
      "type": "SCALAR"
    },
    {
      "bufferView": 2,
      "componentType": 5123,
      "count": 546,
      "type": "SCALAR",
      "byteOffset": 3228
    }
  ],
  "bufferViews": [
    {
      "buffer": 0,
      "byteLength": 11088,
      "target": 34962,
      "byteStride": 12
    },
    {
      "buffer": 0,
      "byteOffset": 11088,
      "byteLength": 11088,
      "target": 34962,
      "byteStride": 12
    },
    {
      "buffer": 0,
      "byteOffset": 22176,
      "byteLength": 4320,
      "target": 34963
    }
  ],
  "buffers": [
    {
      "uri": "data:application/octet-stream;base64,",
      "byteLength": 26496
    }
  ]
}