{
  "asset": {
    "version": "2.0",
    "generator": "Sketchup glTF Exporter v1.2.6 by Centaur"
  },
  "scene": 0,
  "scenes": [
    {
      "nodes": [
        0
      ]
    }
  ],
  "samplers": [
    {
    }
  ],
  "nodes": [
    {
      "name": "root",
      "children": [
        1
      ]
    },
    {
      "name": "bande de noue",
      "mesh": 0
    }
  ],
  "materials": [
    {
      "pbrMetallicRoughness": {
        "baseColorFactor": [
          0.0697,
          0.0658,
          0.0546,
          1.0
        ],
        "metallicFactor": 0.1,
        "roughnessFactor": 0.9
      },
      "name": "4c4a44"
    },
    {
      "pbrMetallicRoughness": {
        "baseColorTexture": {
          "index": 0
        },
        "roughnessFactor": 0.4
      },
      "name": "Aluminium"
    }
  ],
  "images": [
    {
      "bufferView": 0,
      "mimeType": "image/jpeg"
    }
  ],
  "textures": [
    {
      "source": 0,
      "sampler": 0
    }
  ],
  "meshes": [
    {
      "primitives": [
        {
          "attributes": {
            "POSITION": 0,
            "NORMAL": 1
          },
          "indices": 5,
          "mode": 4,
          "material": 0
        },
        {
          "attributes": {
            "POSITION": 2,
            "NORMAL": 3,
            "TEXCOORD_0": 4
          },
          "indices": 6,
          "mode": 4,
          "material": 1
        }
      ]
    }
  ],
  "accessors": [
    {
      "bufferView": 1,
      "componentType": 5126,
      "count": 272,
      "type": "VEC3",
      "min": [
        0.2743691424813432,
        -2.9820580870366424e-17,
        -0.4870070438452732
      ],
      "max": [
        0.44973145340127796,
        1.0,
        -0.4276895790098466
      ]
    },
    {
      "bufferView": 2,
      "componentType": 5126,
      "count": 272,
      "type": "VEC3",
      "min": [
        -0.9998337919603518,
        -6.122399049610149e-17,
        -0.999863642949592
      ],
      "max": [
        0.9997999052607331,
        6.122698777396938e-17,
        0.9999125922118605
      ]
    },
    {
      "bufferView": 3,
      "componentType": 5126,
      "count": 800,
      "type": "VEC3",
      "min": [
        0.27336845966759526,
        -2.9881685875494543e-17,
        -0.48800496430969875
      ],
      "max": [
        0.4507318947313787,
        1.0,
        -0.4276895790098466
      ]
    },
    {
      "bufferView": 4,
      "componentType": 5126,
      "count": 800,
      "type": "VEC3",
      "min": [
        -0.9999744897969569,
        -1.0,
        -0.9995918680708704
      ],
      "max": [
        0.9999539253219182,
        1.0,
        0.8730796341131055
      ]
    },
    {
      "bufferView": 5,
      "componentType": 5126,
      "count": 800,
      "type": "VEC2",
      "min": [
        -0.8068802022430059,
        0.3438320209973752
      ],
      "max": [
        0.8068802022430059,
        1.0
      ]
    },
    {
      "bufferView": 6,
      "componentType": 5123,
      "count": 756,
      "type": "SCALAR"
    },
    {
      "bufferView": 7,
      "componentType": 5123,
      "count": 1848,
      "type": "SCALAR"
    }
  ],
  "bufferViews": [
    {
      "buffer": 0,
      "byteLength": 12471
    },
    {
      "buffer": 0,
      "byteOffset": 12480,
      "byteLength": 3264,
      "target": 34962,
      "byteStride": 12
    },
    {
      "buffer": 0,
      "byteOffset": 15744,
      "byteLength": 3264,
      "target": 34962,
      "byteStride": 12
    },
    {
      "buffer": 0,
      "byteOffset": 19008,
      "byteLength": 9600,
      "target": 34962,
      "byteStride": 12
    },
    {
      "buffer": 0,
      "byteOffset": 28608,
      "byteLength": 9600,
      "target": 34962,
      "byteStride": 12
    },
    {
      "buffer": 0,
      "byteOffset": 38208,
      "byteLength": 6400,
      "target": 34962,
      "byteStride": 8
    },
    {
      "buffer": 0,
      "byteOffset": 44608,
      "byteLength": 1512,
      "target": 34963
    },
    {
      "buffer": 0,
      "byteOffset": 46120,
      "byteLength": 3696,
      "target": 34963
    }
  ],
  "buffers": [
    {
      "uri": "data:application/octet-stream;base64,",
      "byteLength": 49816
    }
  ]
}