{
  "asset": {
    "version": "2.0",
    "generator": "3dpea GLTFExporter"
  },
  "scenes": [
    {
      "name": "AuxScene",
      "nodes": [
        2
      ]
    }
  ],
  "scene": 0,
  "nodes": [
    {
      "name": "Mesh1 Group1 Model",
      "mesh": 0
    },
    {
      "name": "Mesh1 Group1 Model",
      "mesh": 1
    },
    {
      "name": "Sans titre",
      "children": [
        0,
        1
      ]
    }
  ],
  "bufferViews": [
    {
      "buffer": 0,
      "byteOffset": 0,
      "byteLength": 18612,
      "target": 34962,
      "byteStride": 12
    },
    {
      "buffer": 0,
      "byteOffset": 18612,
      "byteLength": 18612,
      "target": 34962,
      "byteStride": 12
    },
    {
      "buffer": 0,
      "byteOffset": 37224,
      "byteLength": 12408,
      "target": 34962,
      "byteStride": 8
    },
    {
      "buffer": 0,
      "byteOffset": 49632,
      "byteLength": 3672,
      "target": 34962,
      "byteStride": 12
    },
    {
      "buffer": 0,
      "byteOffset": 53304,
      "byteLength": 3672,
      "target": 34962,
      "byteStride": 12
    },
    {
      "buffer": 0,
      "byteOffset": 56976,
      "byteLength": 2448,
      "target": 34962,
      "byteStride": 8
    }
  ],
  "buffers": [
    {
      "byteLength": 59424,
      "uri": "data:application/octet-stream;base64,"
    }
  ],
  "accessors": [
    {
      "bufferView": 0,
      "componentType": 5126,
      "count": 1551,
      "max": [
        33.33190155029297,
        6.312439918518066,
        0
      ],
      "min": [
        0,
        0,
        -70
      ],
      "type": "VEC3"
    },
    {
      "bufferView": 1,
      "componentType": 5126,
      "count": 1551,
      "max": [
        0.975678026676178,
        0.9999809861183167,
        1
      ],
      "min": [
        -0.9643009901046753,
        -0.9999809861183167,
        -1
      ],
      "type": "VEC3"
    },
    {
      "bufferView": 2,
      "componentType": 5126,
      "count": 1551,
      "max": [
        27.559099197387695,
        12.68120002746582
      ],
      "min": [
        -27.559099197387695,
        -12.287699699401855
      ],
      "type": "VEC2"
    },
    {
      "bufferView": 3,
      "componentType": 5126,
      "count": 306,
      "max": [
        33.33190155029297,
        6.31102991104126,
        0
      ],
      "min": [
        0,
        0.025283299386501312,
        -70
      ],
      "type": "VEC3"
    },
    {
      "bufferView": 4,
      "componentType": 5126,
      "count": 306,
      "max": [
        0.9642980098724365,
        0.985863983631134,
        0.000014107499737292528
      ],
      "min": [
        -0.9675099849700928,
        0.2528330087661743,
        -0.000028057100280420855
      ],
      "type": "VEC3"
    },
    {
      "bufferView": 5,
      "componentType": 5126,
      "count": 306,
      "max": [
        27.559200286865234,
        6.880970001220703
      ],
      "min": [
        -27.559099197387695,
        -12.312800407409668
      ],
      "type": "VEC2"
    }
  ],
  "materials": [
    {
      "pbrMetallicRoughness": {
        "metallicFactor": 0,
        "roughnessFactor": 1
      },
      "name": "FrontColor"
    },
    {
      "pbrMetallicRoughness": {
        "metallicFactor": 0,
        "roughnessFactor": 1
      },
      "name": "Color_M08"
    }
  ],
  "meshes": [
    {
      "primitives": [
        {
          "mode": 4,
          "attributes": {
            "POSITION": 0,
            "NORMAL": 1,
            "TEXCOORD_0": 2
          },
          "extras": {
            "mergedUserData": [
              {},
              {},
              {},
              {},
              {},
              {},
              {},
              {}
            ]
          },
          "material": 0
        }
      ]
    },
    {
      "primitives": [
        {
          "mode": 4,
          "attributes": {
            "POSITION": 3,
            "NORMAL": 4,
            "TEXCOORD_0": 5
          },
          "extras": {
            "mergedUserData": [
              {},
              {},
              {},
              {},
              {},
              {},
              {}
            ]
          },
          "material": 1
        }
      ]
    }
  ]
}