{
  "asset": {
    "version": "2.0",
    "generator": "Sketchup glTF Exporter v1.2.6 by Centaur"
  },
  "scene": 0,
  "scenes": [
    {
      "nodes": [
        0
      ]
    }
  ],
  "samplers": [
    {
    }
  ],
  "nodes": [
    {
      "name": "root",
      "children": [
        1,
        2,
        3
      ]
    },
    {
      "name": "couvertine à coller",
      "mesh": 0
    },
    {
      "name": "faitière"
    },
    {
      "name": "noue tuile"
    }
  ],
  "materials": [
    {
      "pbrMetallicRoughness": {
        "baseColorFactor": [
          0.4098,
          0.4098,
          0.4098,
          1.0
        ],
        "metallicFactor": 0.1,
        "roughnessFactor": 0.9
      },
      "name": "Couleur M03"
    },
    {
      "pbrMetallicRoughness": {
        "baseColorFactor": [
          0.0017,
          0.0017,
          0.0023,
          1.0
        ],
        "metallicFactor": 0.1,
        "roughnessFactor": 0.9
      },
      "name": "0e0e10"
    },
    {
      "pbrMetallicRoughness": {
        "baseColorFactor": [
          1.0,
          1.0,
          1.0,
          1.0
        ],
        "metallicFactor": 0.1,
        "roughnessFactor": 0.9
      },
      "name": "Couleur M00"
    }
  ],
  "meshes": [
    {
      "primitives": [
        {
          "attributes": {
            "POSITION": 0,
            "NORMAL": 1
          },
          "indices": 2,
          "mode": 4,
          "material": 0
        },
        {
          "attributes": {
            "POSITION": 0,
            "NORMAL": 1
          },
          "indices": 3,
          "mode": 4,
          "material": 1
        },
        {
          "attributes": {
            "POSITION": 0,
            "NORMAL": 1
          },
          "indices": 4,
          "mode": 4,
          "material": 2
        }
      ]
    }
  ],
  "accessors": [
    {
      "bufferView": 0,
      "componentType": 5126,
      "count": 924,
      "type": "VEC3",
      "min": [
        -0.19214174746952425,
        -2.11559378307187e-13,
        -0.4914451094859504
      ],
      "max": [
        0.1790586322096583,
        0.03934164374292379,
        0.4701444558400096
      ]
    },
    {
      "bufferView": 1,
      "componentType": 5126,
      "count": 924,
      "type": "VEC3",
      "min": [
        -0.9826127965440543,
        -1.0,
        -0.9826127965440544
      ],
      "max": [
        0.9826127965440543,
        1.0,
        0.9826127965440544
      ]
    },
    {
      "bufferView": 2,
      "componentType": 5123,
      "count": 1608,
      "type": "SCALAR"
    },
    {
      "bufferView": 2,
      "componentType": 5123,
      "count": 546,
      "type": "SCALAR",
      "byteOffset": 3216
    },
    {
      "bufferView": 2,
      "componentType": 5123,
      "count": 6,
      "type": "SCALAR",
      "byteOffset": 4308
    }
  ],
  "bufferViews": [
    {
      "buffer": 0,
      "byteLength": 11088,
      "target": 34962,
      "byteStride": 12
    },
    {
      "buffer": 0,
      "byteOffset": 11088,
      "byteLength": 11088,
      "target": 34962,
      "byteStride": 12
    },
    {
      "buffer": 0,
      "byteOffset": 22176,
      "byteLength": 4320,
      "target": 34963
    }
  ],
  "buffers": [
    {
      "uri": "data:application/octet-stream;base64,",
      "byteLength": 26496
    }
  ]
}